{
  "accessors": {
    "accessor_16": {
      "bufferView": "bufferView_1",
      "byteOffset": 0,
      "byteStride": 0,
      "componentType": 5123,
      "count": 76056,
      "type": "SCALAR",
      "min": [
        0
      ],
      "max": [
        12895
      ]
    },
    "accessor_18": {
      "bufferView": "bufferView_0",
      "byteOffset": 0,
      "byteStride": 0,
      "componentType": 5123,
      "count": 12896,
      "max": [
        65535,
        65535,
        65535
      ],
      "min": [
        0,
        0,
        0
      ],
      "type": "VEC3",
      "extensions": {
        "WEB3D_quantized_attributes": {
          "decodedMin": [
            -2,
            0.002174969995394349,
            -3.434000253677368
          ],
          "decodedMax": [
            2,
            3.1478099822998047,
            3
          ],
          "decodeMatrix": [
            0.00006103608758678569,
            0,
            0,
            0,
            0,
            0.000047999313531767916,
            0,
            0,
            0,
            0,
            0.00009817655075421329,
            0,
            -2,
            0.002174969995394349,
            -3.434000253677368,
            1
          ]
        }
      }
    },
    "accessor_20": {
      "bufferView": "bufferView_0",
      "byteOffset": 77376,
      "byteStride": 0,
      "componentType": 5121,
      "count": 12896,
      "max": [
        255,
        255
      ],
      "min": [
        0,
        0
      ],
      "type": "VEC2"
    }
  },
  "animations": {},
  "asset": {
    "generator": "collada2gltf@",
    "premultipliedAlpha": true,
    "profile": {
      "api": "WebGL",
      "version": "1.0.2"
    },
    "version": "1.0"
  },
  "bufferViews": {
    "bufferView_0": {
      "buffer": "buffer_0",
      "byteLength": 103168,
      "byteOffset": 0,
      "target": 34962
    },
    "bufferView_1": {
      "buffer": "buffer_0",
      "byteLength": 152112,
      "byteOffset": 103168,
      "target": 34963
    }
  },
  "buffers": {
    "buffer_0": {
      "type": "arraybuffer",
      "byteLength": 255280,
      "uri": "data:application/octet-stream;base64,"
    }
  },
  "cameras": {
    "Camera-camera": {
      "name": "Camera",
      "perspective": {
        "aspectRatio": 1,
        "yfov": 0.8575553147106547,
        "zfar": 100,
        "znear": 0.10000000149011612
      },
      "type": "perspective"
    }
  },
  "materials": {
    "Glossy-effect": {
      "name": "Glossy",
      "technique": "technique0",
      "values": {
        "ambient": [
          0,
          0,
          0,
          1
        ],
        "diffuse": [
          0.6399999856948853,
          0.6399999856948853,
          0.5120000243186951,
          1
        ],
        "emission": [
          0,
          0,
          0,
          1
        ],
        "shininess": 50,
        "specular": [
          0.25,
          0.25,
          0.25,
          1
        ]
      }
    }
  },
  "meshes": {
    "Teapot-mesh": {
      "name": "Teapot",
      "primitives": [
        {
          "attributes": {
            "NORMAL": "accessor_20",
            "POSITION": "accessor_18"
          },
          "indices": "accessor_16",
          "material": "Glossy-effect",
          "mode": 4
        }
      ]
    }
  },
  "nodes": {
    "Camera": {
      "camera": "Camera-camera",
      "children": [],
      "matrix": [
        -0.0665958970785141,
        0.000005109040102979634,
        -0.9977799654006958,
        0,
        -0.1392260044813156,
        0.9902169704437256,
        0.009297559969127178,
        0,
        0.9880189895629883,
        0.13953599333763123,
        -0.06594370305538177,
        0,
        7.984099864959717,
        2.895519971847534,
        -0.6966069936752319,
        1
      ],
      "name": "Camera"
    },
    "rootNode": {
      "children": [
        "Camera"
      ],
      "meshes": [
        "Teapot-mesh"
      ],
      "matrix": [
        1,
        0,
        0,
        0,
        0,
        1,
        0,
        0,
        0,
        0,
        1,
        0,
        0,
        0,
        0,
        1
      ]
    }
  },
  "programs": {
    "program_0": {
      "attributes": [
        "a_normal",
        "a_position"
      ],
      "fragmentShader": "input0FS",
      "vertexShader": "input0VS"
    }
  },
  "scene": "defaultScene",
  "scenes": {
    "defaultScene": {
      "nodes": [
        "rootNode"
      ]
    }
  },
  "shaders": {
    "input0FS": {
      "type": 35632,
      "uri": "data:text/plain;base64,"
    },
    "input0VS": {
      "type": 35633,
      "uri": "data:text/plain;base64,"
    }
  },
  "skins": {},
  "techniques": {
    "technique0": {
      "attributes": {
        "a_normal": "normal",
        "a_position": "position"
      },
      "parameters": {
        "ambient": {
          "type": 35666
        },
        "diffuse": {
          "type": 35666
        },
        "emission": {
          "type": 35666
        },
        "modelViewMatrix": {
          "semantic": "MODELVIEW",
          "type": 35676
        },
        "normal": {
          "semantic": "NORMAL",
          "type": 35667
        },
        "normalMatrix": {
          "semantic": "MODELVIEWINVERSETRANSPOSE",
          "type": 35675
        },
        "position": {
          "semantic": "POSITION",
          "type": 35665
        },
        "projectionMatrix": {
          "semantic": "PROJECTION",
          "type": 35676
        },
        "shininess": {
          "type": 5126
        },
        "specular": {
          "type": 35666
        }
      },
      "program": "program_0",
      "states": {
        "enable": [
          2929
        ],
        "disable": []
      },
      "uniforms": {
        "u_ambient": "ambient",
        "u_diffuse": "diffuse",
        "u_emission": "emission",
        "u_modelViewMatrix": "modelViewMatrix",
        "u_normalMatrix": "normalMatrix",
        "u_projectionMatrix": "projectionMatrix",
        "u_shininess": "shininess",
        "u_specular": "specular"
      }
    }
  },
  "extensionsUsed": [
    "WEB3D_quantized_attributes"
  ],
  "images": {},
  "samplers": {},
  "textures": {}
}
