{
    "accessors": {
        "accessor_16": {
            "bufferView": "bufferView_22",
            "byteOffset": 0,
            "byteStride": 2,
            "componentType": 5123,
            "count": 76056,
            "max": [
                12879
            ],
            "min": [
                0
            ],
            "type": "SCALAR"
        },
        "accessor_18": {
            "bufferView": "bufferView_23",
            "byteOffset": 0,
            "byteStride": 12,
            "componentType": 5126,
            "count": 12896,
            "max": [
                3.434,
                2,
                3.14781
            ],
            "min": [
                -3,
                -2,
                0.00217497
            ],
            "type": "VEC3"
        },
        "accessor_20": {
            "bufferView": "bufferView_23",
            "byteOffset": 154752,
            "byteStride": 12,
            "componentType": 5126,
            "count": 12896,
            "max": [
                0.999904,
                1,
                1
            ],
            "min": [
                -0.999954,
                -1,
                -1
            ],
            "type": "VEC3"
        }
    },
    "animations": {},
    "asset": {
        "generator": "collada2gltf@6779c094d694e951beeb1012d03d4faa1edb0ddf",
        "premultipliedAlpha": true,
        "profile": {
            "api": "WebGL",
            "version": "1.0.2"
        },
        "version": "1.0.1"
    },
    "bufferViews": {
        "bufferView_22": {
            "buffer": "THISONE",
            "byteLength": 152112,
            "byteOffset": 0,
            "target": 34963
        },
        "bufferView_23": {
            "buffer": "THISONE",
            "byteLength": 309504,
            "byteOffset": 152112,
            "target": 34962
        }
    },
    "buffers": {
        "THISONE": {
            "byteLength": 461616,
            "type": "arraybuffer",
            "uri": "THISONE.bin"
        }
    },
    "cameras": {
        "Camera-camera": {
            "name": "Camera",
            "perspective": {
                "aspectRatio": 1,
                "yfov": 0.857556,
                "zfar": 100,
                "znear": 0.1
            },
            "type": "perspective"
        }
    },
    "extensionsUsed": [
        "KHR_materials_common"
    ],
    "materials": {
        "Glossy-effect": {
            "extensions": {
                "KHR_materials_common": {
                    "doubleSided": true,
                    "jointCount": 0,
                    "technique": "PHONG",
                    "transparent": false,
                    "values": {
                        "ambient": [
                            0,
                            0,
                            0,
                            1
                        ],
                        "diffuse": [
                            0.64,
                            0.64,
                            0.512,
                            1
                        ],
                        "emission": [
                            0,
                            0,
                            0,
                            1
                        ],
                        "shininess": 50,
                        "specular": [
                            0.25,
                            0.25,
                            0.25,
                            1
                        ]
                    }
                }
            },
            "name": "Glossy"
        }
    },
    "meshes": {
        "Teapot-mesh": {
            "name": "Teapot",
            "primitives": [
                {
                    "attributes": {
                        "NORMAL": "accessor_20",
                        "POSITION": "accessor_18"
                    },
                    "indices": "accessor_16",
                    "material": "Glossy-effect",
                    "mode": 4
                }
            ]
        }
    },
    "nodes": {
        "Camera": {
            "camera": "Camera-camera",
            "children": [],
            "matrix": [
                -0.0665959,
                0.99778,
                5.10904e-06,
                0,
                -0.139226,
                -0.00929756,
                0.990217,
                0,
                0.988019,
                0.0659437,
                0.139536,
                0,
                7.98411,
                0.696607,
                2.89552,
                1
            ],
            "name": "Camera"
        },
        "Empty": {
            "children": [],
            "name": "Empty"
        },
        "Teapot": {
            "children": [],
            "matrix": [
                7.54979e-08,
                1,
                0,
                0,
                -1,
                7.54979e-08,
                0,
                0,
                0,
                0,
                1,
                0,
                0,
                0,
                0,
                1
            ],
            "meshes": [
                "Teapot-mesh"
            ],
            "name": "Teapot"
        },
        "node_3": {
            "children": [
                "Camera",
                "Teapot",
                "Empty"
            ],
            "matrix": [
                1,
                0,
                0,
                0,
                0,
                0,
                -1,
                0,
                0,
                1,
                0,
                0,
                0,
                0,
                0,
                1
            ],
            "name": "Y_UP_Transform"
        }
    },
    "scene": "defaultScene",
    "scenes": {
        "defaultScene": {
            "nodes": [
                "node_3"
            ]
        }
    },
    "skins": {}
}